# xmcd
#
# Track frame offsets:
#	150
#	17450
#	32207
#	49252
#	67912
#	80212
#	99532
#	117812
#	135360
#	151290
#	160440
#	177042
#
# Disc length: 2674 seconds
#
# Revision: 0
# Processed by: cddbd v1.5.1PL2 Copyright (c) Steve Scherf et al.
# Submitted via: dBpowerAMP V4.0
#
DISCID=920a700c
DTITLE=Those Magnificent Men - What Kind of Country Is This?
DYEAR=1998
DGENRE=Country
TTITLE0=01 What Kind of Country Is This?
TTITLE1=02 Nine Miles High
TTITLE2=03 Kissing in the Wind
TTITLE3=04 Wrong Side of the River
TTITLE4=05 Little Baby
TTITLE5=06 Got a Thing About You
TTITLE6=07 Looks LIke Rain
TTITLE7=08 It's Women That's Killing Me
TTITLE8=09 I'm Smoking Again
TTITLE9=10 On the Rebound - Sidesaddle
TTITLE10=11 Call Me a Fool
TTITLE11=12 This Land
EXTD=Andre Barreau's (as in The Bootleg Beatles and Robbie Williams) own band, playing their own compositions, with a huge but subtle bite of English humour
EXTT0=
EXTT1=
EXTT2=
EXTT3=
EXTT4=
EXTT5=
EXTT6=
EXTT7=
EXTT8=
EXTT9=
EXTT10=
EXTT11=
PLAYORDER=
